<?xml version="1.0" encoding="utf-8"?>
<!-- Generator: Adobe Illustrator 27.7.0, SVG Export Plug-In . SVG Version: 6.00 Build 0)  -->
<svg version="1.1" xmlns="http://www.w3.org/2000/svg" xmlns:xlink="http://www.w3.org/1999/xlink" x="0px" y="0px"
	 viewBox="0 0 234.06 32.68" style="enable-background:new 0 0 234.06 32.68;" xml:space="preserve">
<style type="text/css">
	.st0{fill:#006A76;}
	.st1{fill:#A1C5D3;}
	.st2{fill:none;stroke:#006A76;stroke-width:0.75;stroke-miterlimit:10;}
</style>
<g id="Layer_1">
	<g>
		<path class="st0" d="M27.41,3.31c0-0.28-0.05-0.6-0.14-0.96c-0.09-0.36-0.24-0.69-0.44-1c-0.2-0.31-0.47-0.58-0.82-0.79
			c-0.34-0.22-0.76-0.33-1.26-0.33L24.79,0h9.67v0.23c-0.5,0-0.92,0.11-1.26,0.33c-0.34,0.22-0.61,0.48-0.82,0.79
			c-0.2,0.31-0.34,0.65-0.42,1c-0.08,0.36-0.12,0.68-0.12,0.96v26.05c0,0.28,0.04,0.6,0.12,0.96c0.08,0.36,0.22,0.69,0.42,1
			c0.2,0.31,0.47,0.58,0.82,0.79c0.34,0.22,0.76,0.33,1.26,0.33v0.23h-9.67l-0.05-0.23c0.5,0,0.92-0.11,1.26-0.33
			c0.34-0.22,0.61-0.48,0.82-0.79c0.2-0.31,0.35-0.65,0.44-1c0.09-0.36,0.14-0.68,0.14-0.96v0.05V16.62H7.05v13.03
			c0.03,0.28,0.1,0.58,0.21,0.91c0.11,0.33,0.26,0.63,0.47,0.91c0.2,0.28,0.47,0.51,0.79,0.7c0.33,0.19,0.72,0.28,1.19,0.28v0.23
			H0.05L0,32.45c0.5,0,0.92-0.11,1.26-0.33c0.34-0.22,0.61-0.48,0.82-0.79c0.2-0.31,0.35-0.65,0.44-1c0.09-0.36,0.14-0.68,0.14-0.96
			V2.94C2.6,2.38,2.37,1.79,1.98,1.17C1.59,0.55,0.95,0.23,0.05,0.23V0h9.66v0.23c-0.47,0-0.86,0.09-1.19,0.28
			C8.19,0.7,7.93,0.93,7.73,1.21C7.52,1.49,7.37,1.8,7.26,2.12C7.15,2.45,7.08,2.75,7.05,3.03v13.03h20.36V3.27V3.31z"/>
		<path class="st0" d="M57.71,0l15.83,29.7c0.4,0.69,0.92,1.32,1.54,1.89c0.62,0.58,1.4,0.86,2.33,0.86l0.05,0.23H66.96v-0.23
			c0.65,0,1.12-0.17,1.4-0.51c0.28-0.34,0.42-0.76,0.42-1.26c0-0.47-0.13-0.98-0.37-1.54l-1.12-2.15c-0.62-1.03-1.35-1.94-2.17-2.73
			c-0.83-0.79-1.71-1.47-2.66-2.03c-0.95-0.56-1.94-0.98-2.97-1.26s-2.05-0.42-3.08-0.42c-1.87,0-3.52,0.53-4.95,1.59
			c-1.43,1.06-2.38,2.74-2.85,5.04l-0.37-0.05c-0.44-0.96-0.65-1.85-0.65-2.66c0-1.52,0.67-2.73,2.01-3.62
			c1.34-0.89,3.05-1.33,5.14-1.33c1.96,0,3.95,0.4,5.98,1.19c2.02,0.79,3.77,2.06,5.23,3.81L55,4.02l-12.79,24
			c-0.37,0.78-0.56,1.46-0.56,2.05c0,0.81,0.27,1.41,0.82,1.8c0.54,0.39,1.17,0.58,1.89,0.58v0.23H35.3v-0.23
			c0.5,0,1.04-0.11,1.63-0.33c0.59-0.22,1.17-0.52,1.73-0.91c0.56-0.39,1.1-0.86,1.61-1.4c0.51-0.54,0.94-1.14,1.28-1.8l13.17-24.7
			c-0.13-0.31-0.27-0.65-0.44-1c-0.17-0.36-0.37-0.69-0.61-1C53.44,1,53.17,0.74,52.85,0.54c-0.31-0.2-0.67-0.3-1.07-0.3V0H57.71z"
			/>
		<path class="st0" d="M80.64,3.31c0-0.28-0.04-0.6-0.12-0.96c-0.08-0.36-0.22-0.69-0.42-1c-0.2-0.31-0.47-0.58-0.82-0.79
			c-0.34-0.22-0.76-0.33-1.26-0.33V0h12.7c2.43,0,4.51,0.26,6.23,0.77c1.73,0.51,3.14,1.2,4.25,2.05c1.1,0.86,1.91,1.84,2.43,2.94
			c0.51,1.11,0.77,2.23,0.77,3.39c0,1.06-0.22,2.12-0.65,3.18c-0.44,1.06-1.05,2.02-1.84,2.87c-0.79,0.86-1.77,1.59-2.92,2.19
			c-1.15,0.61-2.46,1-3.92,1.19c1.9,0.09,3.5,0.51,4.81,1.24c1.31,0.73,2.43,1.61,3.36,2.64c0.93,1.03,1.76,2.12,2.47,3.29
			c0.72,1.17,1.42,2.25,2.12,3.24c0.7,1,1.46,1.82,2.29,2.47c0.82,0.65,1.83,0.98,3.01,0.98v0.23h-3.04c-1.59,0-2.93-0.33-4.04-0.98
			c-1.11-0.65-2.08-1.48-2.92-2.47c-0.84-1-1.6-2.09-2.26-3.27c-0.67-1.18-1.36-2.29-2.08-3.31c-0.72-1.03-1.52-1.91-2.4-2.66
			c-0.89-0.75-1.97-1.18-3.25-1.31c-2.24-0.03-4.03-0.72-5.37-2.08c-1.34-1.35-2.24-3.09-2.71-5.21v18.26
			c0.03,0.28,0.09,0.58,0.19,0.91c0.09,0.33,0.25,0.63,0.47,0.91c0.22,0.28,0.48,0.51,0.79,0.7c0.31,0.19,0.7,0.28,1.17,0.28v0.23
			h-9.67v-0.23c0.5,0,0.92-0.11,1.26-0.33c0.34-0.22,0.61-0.48,0.82-0.79c0.2-0.31,0.34-0.65,0.42-1c0.08-0.36,0.12-0.68,0.12-0.96
			V3.31z M85.07,0.56v6.12c0.03,1.99,0.24,3.68,0.63,5.07c0.39,1.38,0.89,2.52,1.52,3.41c0.62,0.89,1.34,1.53,2.15,1.94
			c0.81,0.4,1.65,0.61,2.52,0.61c1.24,0,2.37-0.25,3.39-0.75c1.01-0.5,1.87-1.14,2.57-1.94c0.7-0.79,1.24-1.7,1.61-2.73
			c0.37-1.03,0.56-2.07,0.56-3.13c0-1.09-0.2-2.15-0.61-3.17C99,4.95,98.37,4.04,97.52,3.25c-0.86-0.79-1.95-1.44-3.29-1.94
			c-1.34-0.5-2.94-0.75-4.81-0.75H85.07z"/>
		<path class="st0" d="M116.63,29.37V3.31c0-0.28-0.04-0.6-0.12-0.96c-0.08-0.36-0.22-0.69-0.42-1c-0.2-0.31-0.47-0.58-0.82-0.79
			c-0.34-0.22-0.76-0.33-1.26-0.33V0h9.71v0.23c-0.5,0-0.92,0.11-1.26,0.33c-0.34,0.22-0.61,0.48-0.82,0.79
			c-0.2,0.31-0.34,0.65-0.42,1c-0.08,0.36-0.12,0.68-0.12,0.96v26.05c0,0.28,0.04,0.6,0.12,0.96c0.08,0.36,0.23,0.69,0.44,1
			c0.19,0.31,0.45,0.58,0.79,0.79c0.34,0.22,0.76,0.33,1.26,0.33v0.23h-9.71v-0.23c0.5,0,0.92-0.11,1.26-0.33
			c0.34-0.22,0.61-0.48,0.82-0.79c0.2-0.31,0.34-0.65,0.42-1C116.6,29.97,116.63,29.65,116.63,29.37z"/>
		<path class="st0" d="M137.79,32.68v-0.23c0.9,0,1.55-0.31,1.94-0.93c0.39-0.62,0.61-1.21,0.68-1.77V19.38L129.52,3.5
			c-0.72-1.03-1.47-1.83-2.26-2.4c-0.79-0.58-1.66-0.86-2.59-0.86V0h10.83l-0.05,0.23c-0.59,0-1.02,0.13-1.28,0.4
			c-0.27,0.26-0.4,0.58-0.4,0.96c0,0.44,0.16,0.86,0.47,1.26l10.18,14.89l9.57-13.35c0.25-0.34,0.43-0.68,0.54-1.03
			c0.11-0.34,0.16-0.68,0.16-1.03c0-0.59-0.16-1.09-0.49-1.49c-0.33-0.4-0.8-0.61-1.42-0.61L152.73,0h7.94l-0.05,0.23
			c-0.47,0-0.97,0.13-1.52,0.37c-0.55,0.25-1.08,0.57-1.61,0.96c-0.53,0.39-1.04,0.83-1.54,1.33c-0.5,0.5-0.92,1-1.26,1.49
			l-9.99,13.87V29.7c0.06,0.59,0.29,1.2,0.68,1.82c0.39,0.62,1.03,0.93,1.94,0.93v0.23H137.79z"/>
		<path class="st0" d="M173.97,0l15.83,29.7c0.4,0.69,0.92,1.32,1.54,1.89c0.62,0.58,1.4,0.86,2.33,0.86l0.05,0.23h-10.51v-0.23
			c0.65,0,1.12-0.17,1.4-0.51c0.28-0.34,0.42-0.76,0.42-1.26c0-0.47-0.13-0.98-0.37-1.54l-1.12-2.15c-0.62-1.03-1.35-1.94-2.17-2.73
			c-0.83-0.79-1.71-1.47-2.66-2.03c-0.95-0.56-1.94-0.98-2.97-1.26c-1.03-0.28-2.05-0.42-3.08-0.42c-1.87,0-3.52,0.53-4.95,1.59
			c-1.43,1.06-2.38,2.74-2.85,5.04l-0.37-0.05c-0.44-0.96-0.65-1.85-0.65-2.66c0-1.52,0.67-2.73,2.01-3.62
			c1.34-0.89,3.05-1.33,5.14-1.33c1.96,0,3.95,0.4,5.98,1.19c2.02,0.79,3.77,2.06,5.23,3.81l-10.93-20.5l-12.79,24
			c-0.37,0.78-0.56,1.46-0.56,2.05c0,0.81,0.27,1.41,0.82,1.8c0.54,0.39,1.17,0.58,1.89,0.58v0.23h-9.06v-0.23
			c0.5,0,1.04-0.11,1.63-0.33c0.59-0.22,1.17-0.52,1.73-0.91c0.56-0.39,1.1-0.86,1.61-1.4c0.51-0.54,0.94-1.14,1.28-1.8l13.17-24.7
			c-0.13-0.31-0.27-0.65-0.44-1c-0.17-0.36-0.37-0.69-0.61-1c-0.23-0.31-0.51-0.57-0.82-0.77c-0.31-0.2-0.67-0.3-1.07-0.3V0H173.97z
			"/>
		<path class="st0" d="M222.39,27.27l-1.21,5.42h-26.61v-0.23c0.5,0,0.91-0.1,1.24-0.3c0.33-0.2,0.59-0.45,0.79-0.75
			c0.2-0.3,0.35-0.62,0.44-0.98c0.09-0.36,0.14-0.68,0.14-0.96V3.22c0-0.28-0.05-0.6-0.14-0.96c-0.09-0.36-0.24-0.68-0.44-0.98
			c-0.2-0.3-0.47-0.54-0.79-0.75c-0.33-0.2-0.74-0.3-1.24-0.3V0h9.71v0.23c-0.87,0-1.51,0.3-1.91,0.89
			c-0.41,0.59-0.64,1.17-0.7,1.73v28.9h13.77c0.59,0,1.25-0.17,1.98-0.51c0.73-0.34,1.44-0.75,2.12-1.24
			c0.68-0.48,1.28-0.98,1.77-1.49c0.5-0.51,0.79-0.93,0.89-1.24H222.39z"/>
		<path class="st0" d="M226.97,29.37V3.31c0-0.28-0.04-0.6-0.12-0.96c-0.08-0.36-0.22-0.69-0.42-1c-0.2-0.31-0.47-0.58-0.82-0.79
			c-0.34-0.22-0.76-0.33-1.26-0.33V0h9.71v0.23c-0.5,0-0.92,0.11-1.26,0.33c-0.34,0.22-0.61,0.48-0.82,0.79
			c-0.2,0.31-0.34,0.65-0.42,1c-0.08,0.36-0.12,0.68-0.12,0.96v26.05c0,0.28,0.04,0.6,0.12,0.96c0.08,0.36,0.23,0.69,0.44,1
			c0.19,0.31,0.45,0.58,0.79,0.79c0.34,0.22,0.76,0.33,1.26,0.33v0.23h-9.71v-0.23c0.5,0,0.92-0.11,1.26-0.33
			c0.34-0.22,0.61-0.48,0.82-0.79c0.2-0.31,0.34-0.65,0.42-1C226.93,29.97,226.97,29.65,226.97,29.37z"/>
	</g>
</g>
<g id="Layer_2">
</g>
</svg>
